<svg version="1.1" id="Layer_1" xmlns:x="ns_extend;" xmlns:i="ns_ai;" xmlns:graph="ns_graphs;" xmlns="http://www.w3.org/2000/svg" xmlns:xlink="http://www.w3.org/1999/xlink" x="0px" y="0px" viewBox="0 0 128 128" style="enable-background:new 0 0 128 128;" xml:space="preserve">
 <style type="text/css">
  .st0{fill:#014847;}
	.st1{fill:#32E6E2;}
	.st2{fill:#FFFFFF;}
 </style>
 <metadata>
  <sfw xmlns="ns_sfw;">
   <slices>
   </slices>
   <sliceSourceBounds bottomLeftOrigin="true" height="128" width="128" x="0" y="0">
   </sliceSourceBounds>
  </sfw>
 </metadata>
 <g>
  <g>
   <g>
    <path class="st0" d="M125.2,54.8l-52-52l-1.9-1.9L69.2,0H58.8l-2.1,0.9l-1.9,1.9l-52,52l-1.9,1.9L0,58.8v10.3l0.9,2.1l1.9,1.9
				l52,52l1.9,1.9l2.1,0.9h10.3l2.1-0.9l1.9-1.9l52-52l1.9-1.9l0.9-2.1V58.8l-0.9-2.1L125.2,54.8z">
    </path>
    <path class="st1" d="M59.4,116v-25l0.7-0.7H68l0.7,0.7v25l-0.7,0.7H60L59.4,116z">
    </path>
    <path class="st1" d="M59.4,36.9V12l0.7-0.7H68l0.7,0.7v25L68,37.6H60L59.4,36.9z">
    </path>
    <path class="st1" d="M38.4,97.5h-1.1l-5.5-5.5V91l7.3-7.3l5.8,0l0.8,0.8v5.8L38.4,97.5z">
    </path>
    <path class="st1" d="M31.8,37.3v-1.1l5.5-5.5h1.1l7.3,7.3v5.8l-0.8,0.8h-5.8L31.8,37.3z">
    </path>
    <path class="st1" d="M9.9,59.4h28.1l0.7,0.7v8l-0.7,0.7H9.9L9.2,68v-8L9.9,59.4z">
    </path>
    <path class="st2" d="M78.9,80.5h-7.9l-0.7-0.7V61.3c0-3.3-1.3-5.9-5.3-6c-2.1-0.1-4.4,0-6.9,0.1l-0.4,0.4l0,24L57,80.5h-7.9
				l-0.7-0.7V48.1l0.7-0.7H67c6.9,0,12.6,5.6,12.6,12.6v19.8L78.9,80.5L78.9,80.5z">
    </path>
    <path class="st1" d="M118.1,68.6H90.1L89.4,68v-8l0.7-0.7h28.1l0.7,0.7v8L118.1,68.6z">
    </path>
   </g>
  </g>
 </g>
</svg>